<svg width="77" height="77" viewBox="0 0 77 77" fill="none" xmlns="http://www.w3.org/2000/svg">
<rect width="77" height="77" rx="9" fill="#44EEEE"/>
<path fill-rule="evenodd" clip-rule="evenodd" d="M33.625 17.6665C33.625 16.746 34.3525 15.9999 35.25 15.9999C36.1475 15.9999 36.875 16.746 36.875 17.6665V19.3332H40.125V17.6665C40.125 16.746 40.8525 15.9999 41.75 15.9999C42.6475 15.9999 43.375 16.746 43.375 17.6665V19.3332H45C46.4341 19.3332 47.6511 20.2859 48.0826 21.6078C48.5579 21.6883 49.0098 21.7774 49.4396 21.8753C52.073 22.4755 53.6335 23.3552 54.6685 24.4168C55.7035 25.4783 56.5613 27.0789 57.1464 29.7798C57.7415 32.5261 58 36.1501 58 40.9999C58 45.8496 57.7415 49.4737 57.1464 52.22C56.5613 54.9209 55.7035 56.5214 54.6685 57.5829C53.6335 58.6445 52.073 59.5243 49.4396 60.1244C46.762 60.7348 43.2285 60.9999 38.5 60.9999C33.7715 60.9999 30.238 60.7348 27.5604 60.1244C24.927 59.5243 23.3665 58.6445 22.3315 57.5829C21.2965 56.5214 20.4387 54.9209 19.8536 52.22C19.2585 49.4737 19 45.8496 19 40.9999C19 36.1501 19.2585 32.5261 19.8536 29.7798C20.4387 27.0789 21.2965 25.4783 22.3315 24.4168C23.3665 23.3552 24.927 22.4755 27.5604 21.8753C27.9902 21.7774 28.4421 21.6883 28.9174 21.6078C29.3489 20.2859 30.5659 19.3332 32 19.3332H33.625V17.6665ZM41.9727 32.2493C42.6454 31.3867 42.5091 30.1282 41.6682 29.4381C40.8272 28.7481 39.6 28.888 38.9273 29.7505L31.1273 39.7505C30.6591 40.3509 30.5677 41.1733 30.8924 41.8663C31.2172 42.5592 31.9004 42.9999 32.65 42.9999H40.2928L35.0273 49.7505C34.3546 50.613 34.4909 51.8716 35.3318 52.5617C36.1728 53.2517 37.4 53.1118 38.0727 52.2493L45.8727 42.2493C46.3409 41.6489 46.4323 40.8264 46.1076 40.1335C45.7828 39.4405 45.0996 38.9999 44.35 38.9999H36.7072L41.9727 32.2493Z" fill="#16191A"/>
</svg>
