<svg width="77" height="77" viewBox="0 0 77 77" fill="none" xmlns="http://www.w3.org/2000/svg">
<rect width="77" height="77" rx="9" fill="#44EEEE"/>
<path d="M47.25 39C41.451 39 36.75 34.299 36.75 28.5C36.75 22.701 41.451 18 47.25 18C53.049 18 57.75 22.701 57.75 28.5C57.75 34.299 53.049 39 47.25 39Z" fill="#16171A"/>
<path d="M47.25 60C34.2799 60 31.5 58.4556 31.5 51.25C31.5 44.0444 34.2799 42.5 47.25 42.5C60.2201 42.5 63 44.0444 63 51.25C63 58.4556 60.2201 60 47.25 60Z" fill="#16171A"/>
<path d="M24.5 30.25C24.5 25.8992 27.9717 21.5 33.25 21.5C34.2165 21.5 35 22.2835 35 23.25C35 24.2165 34.2165 25 33.25 25C30.1283 25 28 27.6008 28 30.25C28 32.8992 30.1283 35.5 33.25 35.5C34.2165 35.5 35 36.2835 35 37.25C35 38.2165 34.2165 39 33.25 39C27.9717 39 24.5 34.6008 24.5 30.25Z" fill="#16171A"/>
<path d="M29.75 40.75C30.7165 40.75 31.5 41.5335 31.5 42.5C31.5 43.4665 30.7165 44.25 29.75 44.25C24.5487 44.25 21.3955 44.4901 19.5425 45.2215C18.6902 45.558 18.2445 45.9519 17.9796 46.3777C17.7006 46.826 17.5 47.5065 17.5 48.625C17.5 49.7377 17.6985 50.4631 17.9681 50.9522C18.2256 51.4195 18.612 51.789 19.216 52.091C20.5504 52.7582 22.7206 53 26.0167 53C26.9832 53 27.7667 53.7835 27.7667 54.75C27.7667 55.7165 26.9832 56.5 26.0167 56.5C22.7794 56.5 19.8163 56.3043 17.6507 55.2215C16.5046 54.6485 15.5494 53.8149 14.9028 52.6415C14.2681 51.49 14 50.1373 14 48.625C14 47.1185 14.2661 45.7208 15.0079 44.5286C15.7638 43.3137 16.8931 42.5045 18.2575 41.966C20.8378 40.9474 24.6846 40.75 29.75 40.75Z" fill="#16171A"/>
</svg>
