<svg width="77" height="77" viewBox="0 0 77 77" fill="none" xmlns="http://www.w3.org/2000/svg">
<rect width="77" height="77" rx="9" fill="#44EEEE"/>
<path d="M24.1378 41C37.6549 49 39.3452 49 52.8622 41C66.3792 33 66.3792 33 52.8622 25C39.3452 17 37.6549 17 24.1378 25C17.3793 29 14 31 14 33V51C14 52.1045 14.8775 53 15.96 53C17.0425 53 17.92 52.1045 17.92 51L17.92 37.9469C17.92 37.6299 18.2645 37.4381 18.5275 37.6066C20.0258 38.5663 21.8959 39.6731 24.1378 41Z" fill="#16171A"/>
<path d="M24.1378 43.0001C37.6549 51.0001 39.3452 51.0001 52.8622 43.0001L53.6333 42.5437C54.2452 42.1812 55.0166 42.5787 55.0616 43.2992C55.1296 44.388 55.16 45.6158 55.16 47C55.16 57 51.24 59 38.4326 59C24.7686 59 21.84 57 21.84 47C21.84 45.6165 21.8691 44.3892 21.9346 43.3008C21.9781 42.5787 22.7509 42.1789 23.364 42.5421L24.1378 43.0001Z" fill="#16171A"/>
</svg>
