<svg width="77" height="77" viewBox="0 0 77 77" fill="none" xmlns="http://www.w3.org/2000/svg">
<rect width="77" height="77" rx="9" fill="#44EEEE"/>
<path fill-rule="evenodd" clip-rule="evenodd" d="M35.0871 14.1479C35.0558 14.2293 35.0787 14.6736 35.1379 15.1353C35.5938 18.6895 34.6004 21.6721 31.7968 25.1674C31.4248 25.6312 30.2541 26.9509 29.1954 28.1001C26.9059 30.5852 26.0796 31.539 25.1569 32.7615C22.7983 35.886 21.4363 39.1983 20.9883 42.8997C20.8415 44.1123 20.8676 46.6951 21.0385 47.8666C22.3434 56.8117 30.0881 63.2982 39.0737 62.9718C46.9086 62.687 53.6008 57.1681 55.6348 49.3143C56.2976 46.7551 56.2711 43.2472 55.5664 40.2704C54.9366 37.6099 53.786 35.0442 52.3583 33.1166C51.657 32.1697 51.3613 32.2361 51.4032 33.3313C51.4926 35.6723 49.9963 37.5719 47.7725 37.9403C46.0205 38.2307 44.1618 37.1804 43.3453 35.439C42.8919 34.472 42.8887 33.6523 43.3291 31.2701C43.756 28.9609 43.8258 27.9858 43.6714 26.4846C43.1817 21.7206 40.6888 17.6997 36.2644 14.5373C35.4958 13.9878 35.1876 13.8859 35.0871 14.1479ZM34.956 39.2523C32.0129 42.2735 30.5376 44.7161 29.9172 47.5949C29.6632 48.7736 29.6685 51.5799 29.9264 52.5204C30.3896 54.2097 31.2228 55.6273 32.4216 56.766C34.8644 59.0865 38.1537 59.8212 41.3 58.7492C43.6004 57.9655 45.4326 56.3177 46.4841 54.0868C47.0662 52.8519 47.2141 52.24 47.2766 50.8094C47.3352 49.4681 47.2352 48.6617 46.8793 47.6066C46.5821 46.7259 46.4947 46.6983 45.7601 47.2541C44.6566 48.0892 43.5865 48.453 42.2338 48.453C39.7098 48.453 37.6048 46.8846 36.8279 44.4254C36.4823 43.3315 36.3639 41.9764 36.4406 39.9942C36.5078 38.2554 36.4878 38.1237 36.1561 38.1185C36.1043 38.1178 35.5642 38.6279 34.956 39.2523Z" fill="#16191A"/>
</svg>
