<svg width="77" height="77" viewBox="0 0 77 77" fill="none" xmlns="http://www.w3.org/2000/svg">
<rect width="77" height="77" rx="9" fill="#44EEEE"/>
<path fill-rule="evenodd" clip-rule="evenodd" d="M45.8492 19.692C47.6124 21.2593 48.8292 23.4628 49.1597 26.2115C49.1889 26.4542 49.3714 26.6531 49.6118 26.6979C54.5747 27.6232 57.3166 29.546 58.7191 33.1644C58.8041 33.3835 58.7271 33.6316 58.5378 33.7709C51.7367 38.7769 45.0664 41.1874 38.5 41.1874C31.9336 41.1874 25.2633 38.7769 18.4622 33.7709C18.2729 33.6316 18.1959 33.3835 18.2809 33.1644C19.6834 29.546 22.4253 27.6232 27.3882 26.6979C27.6286 26.6531 27.8111 26.4542 27.8403 26.2115C28.1708 23.4628 29.3876 21.2593 31.1508 19.692C33.1988 17.8716 35.8787 16.9999 38.5 16.9999C41.1213 16.9999 43.8012 17.8716 45.8492 19.692ZM38.5 25.9582C36.148 25.9582 34.0415 26.0112 32.1567 26.136C31.8061 26.1592 31.5236 25.8477 31.6158 25.5086C31.9822 24.1613 32.6766 23.1301 33.5315 22.3702C34.8429 21.2045 36.6422 20.5832 38.5 20.5832C40.3578 20.5832 42.1571 21.2045 43.4685 22.3702C44.3234 23.1301 45.0178 24.1613 45.3842 25.5086C45.4764 25.8477 45.1939 26.1592 44.8433 26.136C42.9585 26.0112 40.852 25.9582 38.5 25.9582Z" fill="#16171A"/>
<path d="M18.0303 37.8539C17.6951 37.6264 17.2357 37.83 17.1967 38.2331C17.059 39.6542 17 41.231 17 42.979C17 56.9957 20.7947 59.9999 38.5 59.9999C56.2052 59.9999 60 56.9957 60 42.979C60 41.231 59.941 39.6542 59.8033 38.2331C59.7643 37.83 59.3049 37.6264 58.9697 37.8539C52.249 42.4167 45.4187 44.7707 38.5 44.7707C31.5813 44.7707 24.751 42.4167 18.0303 37.8539Z" fill="#16171A"/>
</svg>
