<svg width="77" height="77" viewBox="0 0 77 77" fill="none" xmlns="http://www.w3.org/2000/svg">
<rect width="77" height="77" rx="9" fill="#44EEEE"/>
<path fill-rule="evenodd" clip-rule="evenodd" d="M39.5 59.9999C21.7947 59.9999 18 56.2051 18 38.4999C18 20.7946 21.7947 16.9999 39.5 16.9999C57.2052 16.9999 61 20.7946 61 38.4999C61 56.2051 57.2052 59.9999 39.5 59.9999ZM30.5417 38.4999C31.5312 38.4999 32.3333 39.302 32.3333 40.2915V47.4582C32.3333 48.4477 31.5312 49.2499 30.5417 49.2499C29.5522 49.2499 28.75 48.4477 28.75 47.4582V40.2915C28.75 39.302 29.5522 38.4999 30.5417 38.4999ZM41.2917 29.5415C41.2917 28.552 40.4895 27.7499 39.5 27.7499C38.5105 27.7499 37.7083 28.552 37.7083 29.5415V47.4582C37.7083 48.4477 38.5105 49.2499 39.5 49.2499C40.4895 49.2499 41.2917 48.4477 41.2917 47.4582V29.5415ZM48.4583 34.9165C49.4478 34.9165 50.25 35.7187 50.25 36.7082V47.4582C50.25 48.4477 49.4478 49.2499 48.4583 49.2499C47.4688 49.2499 46.6667 48.4477 46.6667 47.4582V36.7082C46.6667 35.7187 47.4688 34.9165 48.4583 34.9165Z" fill="#16171A"/>
</svg>
