<svg width="1408" height="423" viewBox="0 0 1408 423" fill="none" xmlns="http://www.w3.org/2000/svg">
<g opacity="0.15">
<path opacity="0.5" d="M-3 203L1405 203" stroke="#AAAAAA" stroke-width="0.494362"/>
<path opacity="0.5" d="M509 -53L509 1099" stroke="#AAAAAA" stroke-width="0.494362"/>
<path opacity="0.5" d="M1277 -53L1277 1099" stroke="#AAAAAA" stroke-width="0.494362"/>
<path opacity="0.5" d="M765 -53L765 1099" stroke="#AAAAAA" stroke-width="0.494362"/>
<path opacity="0.5" d="M253 -53L253 1099" stroke="#AAAAAA" stroke-width="0.494362"/>
<path opacity="0.5" d="M1021 -53L1021 1099" stroke="#AAAAAA" stroke-width="0.494362"/>
<path opacity="0.5" d="M-3 75L1405 75.0002" stroke="#AAAAAA" stroke-width="0.494362"/>
<path opacity="0.5" d="M637 -53L637 1099" stroke="#AAAAAA" stroke-width="0.494362"/>
<path opacity="0.5" d="M1405 -53L1405 1099" stroke="#AAAAAA" stroke-width="0.494362"/>
<path opacity="0.5" d="M125 -53L125 1099" stroke="#AAAAAA" stroke-width="0.494362"/>
<path opacity="0.5" d="M893 -53L893 1099" stroke="#AAAAAA" stroke-width="0.494362"/>
<path opacity="0.5" d="M-3 331L1405 331" stroke="#AAAAAA" stroke-width="0.494362"/>
<path opacity="0.5" d="M381 -53L381 1099" stroke="#AAAAAA" stroke-width="0.494362"/>
<path opacity="0.5" d="M1149 -53L1149 1099" stroke="#AAAAAA" stroke-width="0.494362"/>
<path d="M125.623 75.625L125.623 80L124.373 80L124.373 75.625L120 75.625L120 74.375L124.373 74.375L124.373 70L125.623 70L125.623 74.375L130 74.375L130 75.625L125.623 75.625Z" fill="#AAAAAA"/>
<path d="M125.623 203.625L125.623 208L124.373 208L124.373 203.625L120 203.625L120 202.375L124.373 202.375L124.373 198L125.623 198L125.623 202.375L130 202.375L130 203.625L125.623 203.625Z" fill="#AAAAAA"/>
<path d="M125.623 331.625L125.623 336L124.373 336L124.373 331.625L120 331.625L120 330.375L124.373 330.375L124.373 326L125.623 326L125.623 330.375L130 330.375L130 331.625L125.623 331.625Z" fill="#AAAAAA"/>
<path d="M637.623 75.625L637.623 80L636.373 80L636.373 75.625L632 75.625L632 74.375L636.373 74.375L636.373 70L637.623 70L637.623 74.375L642 74.375L642 75.625L637.623 75.625Z" fill="#AAAAAA"/>
<path d="M637.623 203.625L637.623 208L636.373 208L636.373 203.625L632 203.625L632 202.375L636.373 202.375L636.373 198L637.623 198L637.623 202.375L642 202.375L642 203.625L637.623 203.625Z" fill="#AAAAAA"/>
<path d="M637.623 331.625L637.623 336L636.373 336L636.373 331.625L632 331.625L632 330.375L636.373 330.375L636.373 326L637.623 326L637.623 330.375L642 330.375L642 331.625L637.623 331.625Z" fill="#AAAAAA"/>
<path d="M1149.62 75.625L1149.62 80L1148.37 80L1148.37 75.625L1144 75.625L1144 74.375L1148.37 74.375L1148.37 70L1149.62 70L1149.62 74.375L1154 74.375L1154 75.625L1149.62 75.625Z" fill="#AAAAAA"/>
<path d="M1149.62 203.625L1149.62 208L1148.37 208L1148.37 203.625L1144 203.625L1144 202.375L1148.37 202.375L1148.37 198L1149.62 198L1149.62 202.375L1154 202.375L1154 203.625L1149.62 203.625Z" fill="#AAAAAA"/>
<path d="M1149.62 331.625L1149.62 336L1148.37 336L1148.37 331.625L1144 331.625L1144 330.375L1148.37 330.375L1148.37 326L1149.62 326L1149.62 330.375L1154 330.375L1154 331.625L1149.62 331.625Z" fill="#AAAAAA"/>
<path d="M253.623 75.625L253.623 80L252.373 80L252.373 75.625L248 75.625L248 74.375L252.373 74.375L252.373 70L253.623 70L253.623 74.375L258 74.375L258 75.625L253.623 75.625Z" fill="#AAAAAA"/>
<path d="M253.623 203.625L253.623 208L252.373 208L252.373 203.625L248 203.625L248 202.375L252.373 202.375L252.373 198L253.623 198L253.623 202.375L258 202.375L258 203.625L253.623 203.625Z" fill="#AAAAAA"/>
<path d="M253.623 331.625L253.623 336L252.373 336L252.373 331.625L248 331.625L248 330.375L252.373 330.375L252.373 326L253.623 326L253.623 330.375L258 330.375L258 331.625L253.623 331.625Z" fill="#AAAAAA"/>
<path d="M765.623 75.625L765.623 80L764.373 80L764.373 75.625L760 75.625L760 74.375L764.373 74.375L764.373 70L765.623 70L765.623 74.375L770 74.375L770 75.625L765.623 75.625Z" fill="#AAAAAA"/>
<path d="M765.623 203.625L765.623 208L764.373 208L764.373 203.625L760 203.625L760 202.375L764.373 202.375L764.373 198L765.623 198L765.623 202.375L770 202.375L770 203.625L765.623 203.625Z" fill="#AAAAAA"/>
<path d="M765.623 331.625L765.623 336L764.373 336L764.373 331.625L760 331.625L760 330.375L764.373 330.375L764.373 326L765.623 326L765.623 330.375L770 330.375L770 331.625L765.623 331.625Z" fill="#AAAAAA"/>
<path d="M1277.62 75.625L1277.62 80L1276.37 80L1276.37 75.625L1272 75.625L1272 74.375L1276.37 74.375L1276.37 70L1277.62 70L1277.62 74.375L1282 74.375L1282 75.625L1277.62 75.625Z" fill="#AAAAAA"/>
<path d="M1277.62 203.625L1277.62 208L1276.37 208L1276.37 203.625L1272 203.625L1272 202.375L1276.37 202.375L1276.37 198L1277.62 198L1277.62 202.375L1282 202.375L1282 203.625L1277.62 203.625Z" fill="#AAAAAA"/>
<path d="M1277.62 331.625L1277.62 336L1276.37 336L1276.37 331.625L1272 331.625L1272 330.375L1276.37 330.375L1276.37 326L1277.62 326L1277.62 330.375L1282 330.375L1282 331.625L1277.62 331.625Z" fill="#AAAAAA"/>
<path d="M381.623 75.625L381.623 80L380.373 80L380.373 75.625L376 75.625L376 74.375L380.373 74.375L380.373 70L381.623 70L381.623 74.375L386 74.375L386 75.625L381.623 75.625Z" fill="#AAAAAA"/>
<path d="M381.623 203.625L381.623 208L380.373 208L380.373 203.625L376 203.625L376 202.375L380.373 202.375L380.373 198L381.623 198L381.623 202.375L386 202.375L386 203.625L381.623 203.625Z" fill="#AAAAAA"/>
<path d="M381.623 331.625L381.623 336L380.373 336L380.373 331.625L376 331.625L376 330.375L380.373 330.375L380.373 326L381.623 326L381.623 330.375L386 330.375L386 331.625L381.623 331.625Z" fill="#AAAAAA"/>
<path d="M893.623 75.625L893.623 80L892.373 80L892.373 75.625L888 75.625L888 74.375L892.373 74.375L892.373 70L893.623 70L893.623 74.375L898 74.375L898 75.625L893.623 75.625Z" fill="#AAAAAA"/>
<path d="M893.623 203.625L893.623 208L892.373 208L892.373 203.625L888 203.625L888 202.375L892.373 202.375L892.373 198L893.623 198L893.623 202.375L898 202.375L898 203.625L893.623 203.625Z" fill="#AAAAAA"/>
<path d="M893.623 331.625L893.623 336L892.373 336L892.373 331.625L888 331.625L888 330.375L892.373 330.375L892.373 326L893.623 326L893.623 330.375L898 330.375L898 331.625L893.623 331.625Z" fill="#AAAAAA"/>
<path d="M1405.62 75.625L1405.62 80L1404.37 80L1404.37 75.625L1400 75.625L1400 74.375L1404.37 74.375L1404.37 70L1405.62 70L1405.62 74.375L1410 74.375L1410 75.625L1405.62 75.625Z" fill="#AAAAAA"/>
<path d="M1405.62 203.625L1405.62 208L1404.37 208L1404.37 203.625L1400 203.625L1400 202.375L1404.37 202.375L1404.37 198L1405.62 198L1405.62 202.375L1410 202.375L1410 203.625L1405.62 203.625Z" fill="#AAAAAA"/>
<path d="M1405.62 331.625L1405.62 336L1404.37 336L1404.37 331.625L1400 331.625L1400 330.375L1404.37 330.375L1404.37 326L1405.62 326L1405.62 330.375L1410 330.375L1410 331.625L1405.62 331.625Z" fill="#AAAAAA"/>
<path d="M509.623 75.625L509.623 80L508.373 80L508.373 75.625L504 75.625L504 74.375L508.373 74.375L508.373 70L509.623 70L509.623 74.375L514 74.375L514 75.625L509.623 75.625Z" fill="#AAAAAA"/>
<path d="M509.623 203.625L509.623 208L508.373 208L508.373 203.625L504 203.625L504 202.375L508.373 202.375L508.373 198L509.623 198L509.623 202.375L514 202.375L514 203.625L509.623 203.625Z" fill="#AAAAAA"/>
<path d="M509.623 331.625L509.623 336L508.373 336L508.373 331.625L504 331.625L504 330.375L508.373 330.375L508.373 326L509.623 326L509.623 330.375L514 330.375L514 331.625L509.623 331.625Z" fill="#AAAAAA"/>
<path d="M1021.62 75.625L1021.62 80L1020.37 80L1020.37 75.625L1016 75.625L1016 74.375L1020.37 74.375L1020.37 70L1021.62 70L1021.62 74.375L1026 74.375L1026 75.625L1021.62 75.625Z" fill="#AAAAAA"/>
<path d="M1021.62 203.625L1021.62 208L1020.37 208L1020.37 203.625L1016 203.625L1016 202.375L1020.37 202.375L1020.37 198L1021.62 198L1021.62 202.375L1026 202.375L1026 203.625L1021.62 203.625Z" fill="#AAAAAA"/>
<path d="M1021.62 331.625L1021.62 336L1020.37 336L1020.37 331.625L1016 331.625L1016 330.375L1020.37 330.375L1020.37 326L1021.62 326L1021.62 330.375L1026 330.375L1026 331.625L1021.62 331.625Z" fill="#AAAAAA"/>
</g>
</svg>
