<svg width="281" height="51" viewBox="0 0 281 51" fill="none" xmlns="http://www.w3.org/2000/svg">
<g clip-path="url(#clip0_1_2247)">
<path fill-rule="evenodd" clip-rule="evenodd" d="M202.656 0.0431296C202.495 0.0590736 202.001 0.106759 201.559 0.149154C199.377 0.357968 196.663 1.00432 194.576 1.81218C193.285 2.31217 192.079 2.87756 192.112 2.96793C192.128 3.01261 192.513 4.17336 192.967 5.54734C193.42 6.92131 193.798 8.05356 193.806 8.0634C193.813 8.07332 194.261 7.87846 194.801 7.63041C197.711 6.2934 200.363 5.65755 203.03 5.65755C205.137 5.65755 206.735 6.22168 207.732 7.31837C208.915 8.61865 209.114 10.8313 208.205 12.5691C207.486 13.9456 206.318 15.0381 202.912 17.5219C199.846 19.7575 198.606 20.7894 197.023 22.4197C196.499 22.9598 195.872 23.6496 195.63 23.9527C192.823 27.4757 191.343 31.2913 190.82 36.3516L190.781 36.7373H203.465H216.149L216.129 33.9269L216.11 31.1165L207.793 31.0978C200.676 31.0818 199.475 31.0641 199.475 30.9751C199.475 30.7485 199.95 29.532 200.324 28.8021C201.05 27.3818 202.209 25.941 203.749 24.5428C204.754 23.6311 205.489 23.0328 207.811 21.2364C210.044 19.5089 210.845 18.8414 211.826 17.8911C213.231 16.5297 214.15 15.3286 214.827 13.9709C216.331 10.9526 216.143 6.99545 214.37 4.31744C213.63 3.19901 212.308 2.04296 211.034 1.39954C209.975 0.864723 208.464 0.416822 206.934 0.183687C206.202 0.0721521 203.318 -0.0225567 202.656 0.0431296ZM225.872 11.6848L216.915 23.3611L216.895 25.5673L216.876 27.7734H224.993H233.111V32.2554V36.7373H236.365H239.619V32.2554V27.7734H242.362H245.105L245.085 25.0365L245.066 22.2996L242.343 22.2803L239.619 22.2611V11.1305V0L237.224 0.00426153L234.829 0.00852306L225.872 11.6848ZM0 18.4481V36.7492L5.97767 36.7177C12.5209 36.6832 12.9886 36.6579 15.147 36.2223C18.9006 35.4646 21.5491 33.7802 23.0515 31.1953C23.7032 30.0741 24.1847 28.5148 24.3511 26.9866C24.4639 25.9515 24.4088 23.7803 24.2476 22.9051C23.9998 21.5591 23.4306 20.124 22.7384 19.1C22.3193 18.4798 21.3778 17.5018 20.724 17.0072C19.5485 16.1183 17.8748 15.3306 16.2944 14.9226C14.4315 14.4415 12.7694 14.2727 9.23158 14.2049L6.72717 14.1569V9.7974V5.43786L14.0174 5.41912L21.3077 5.40039L22.1325 2.86551C22.586 1.47133 22.9579 0.289343 22.9587 0.238793C22.9598 0.165685 20.6161 0.146949 11.4801 0.146949H0V18.4481ZM265.138 0.818287C261.16 1.22798 257.386 3.42157 255.105 6.64945C252.693 10.0629 251.898 14.1286 252.864 18.1115C254.091 23.1717 257.934 27.1972 262.819 28.5385C265.121 29.1705 267.687 29.1982 269.986 28.6158C273.389 27.7539 276.467 25.5213 278.392 22.52C279.987 20.0321 280.807 16.7851 280.57 13.8937C280.282 10.3831 278.911 7.37906 276.473 4.91795C273.486 1.90204 269.303 0.389342 265.138 0.818287ZM265.145 3.38336C261.003 3.90547 257.374 6.7197 255.815 10.6171C255.262 12.0006 255.017 13.3026 255.02 14.8419C255.032 20.2812 258.867 25.0834 264.118 26.235C267.171 26.9046 270.266 26.2946 272.999 24.4845C274.013 23.8129 275.391 22.4209 276.093 21.3595C278.436 17.8166 278.711 13.5135 276.837 9.73539C275.241 6.5208 272.28 4.25455 268.721 3.52458C267.841 3.34412 266.025 3.27241 265.145 3.38336ZM265.699 7.83732C265.672 7.86421 265.65 9.88109 265.65 12.3193V16.7522H270.11H274.571V15.8338V14.9154H271.061H267.551V11.3518V7.78831H266.649C266.153 7.78831 265.726 7.81035 265.699 7.83732ZM90.8612 9.92429C88.5865 10.0614 85.6644 10.5871 83.2121 11.3005L82.7369 11.4387L82.7184 30.664L82.7 49.8893H85.9906H89.2812V43.3133C89.2812 39.6965 89.2917 36.7373 89.3045 36.7373C89.3173 36.7373 89.5012 36.789 89.7132 36.8523C91.4671 37.3757 94.2511 37.4319 96.4471 36.9885C99.1263 36.4474 101.189 35.3635 102.997 33.5466C105.047 31.4867 106.19 29.0951 106.658 25.8864C106.829 24.7196 106.828 22.3441 106.656 21.124C105.964 16.192 103.5 12.7908 99.3897 11.0927C97.0034 10.1067 94.2013 9.7229 90.8612 9.92429ZM159.008 9.92694C157.815 10.0726 156.857 10.5154 156.021 11.3076C154.99 12.2852 154.49 13.2705 153.374 16.5318C152.496 19.0988 151.84 20.1836 150.886 20.651C150.533 20.824 150.458 20.8309 148.674 20.854L146.828 20.878V15.7292V10.5803H143.537H140.247V23.6588V36.7373H143.537H146.828V31.3002V25.8631L148.893 25.8647C150.745 25.8662 150.989 25.8803 151.252 26.0019C151.767 26.241 152.349 26.9473 152.922 28.0306C153.029 28.2326 153.853 30.266 154.753 32.5493L156.389 36.7006L159.871 36.7197C161.786 36.7302 163.353 36.7202 163.353 36.6976C163.353 36.6199 158.66 26.7819 158.365 26.2413C157.702 25.0261 156.921 24.1957 156.059 23.7878C155.808 23.6688 155.602 23.5544 155.602 23.5334C155.602 23.5125 155.83 23.2833 156.109 23.0242C156.946 22.2457 157.307 21.5804 158.128 19.3038C159.006 16.8723 159.444 16.1518 160.273 15.7731C160.715 15.5715 161.992 15.5532 162.421 15.7422L162.695 15.863V13.0768V10.2906L162.311 10.1806C161.426 9.92701 159.941 9.81298 159.008 9.92694ZM177.904 9.89182C172.729 10.2616 168.477 13.1061 166.381 17.6014C164.507 21.6199 164.632 27.0436 166.687 30.928C168.111 33.6205 170.42 35.5803 173.309 36.5495C177.066 37.8103 181.856 37.4317 185.536 35.5831C186.226 35.2367 186.971 34.7675 186.971 34.68C186.971 34.6206 185.217 30.3984 185.173 30.352C185.158 30.3356 184.758 30.5057 184.285 30.73C182.13 31.7518 180.24 32.1413 178.319 31.9592C175.536 31.6955 173.588 30.355 172.556 27.9946C171.665 25.9542 171.51 23.0314 172.173 20.7342C172.819 18.4953 174.357 16.663 176.298 15.8195C178.965 14.6608 182.668 15.07 185.347 16.8195C185.6 16.9845 185.822 17.1196 185.841 17.1196C185.861 17.1196 185.868 15.8714 185.857 14.3459L185.838 11.5723L185.399 11.3359C184.279 10.7322 182.707 10.2434 181.226 10.0382C180.389 9.92202 178.591 9.84281 177.904 9.89182ZM228.81 16.3408C226.303 19.7266 224.27 22.515 224.293 22.5372C224.315 22.5594 225.313 22.5395 226.51 22.4931C227.707 22.4466 229.678 22.4089 230.889 22.4092L233.092 22.4098L233.132 18.387C233.156 15.9522 233.219 13.6271 233.292 12.4968C233.357 11.4697 233.401 10.5294 233.389 10.4071C233.369 10.2102 232.848 10.8864 228.81 16.3408ZM42.6913 16.7706C38.2739 23.1667 38.0112 23.5588 36.4519 26.0835C35.9403 26.9119 35.475 27.6641 35.418 27.755C35.3609 27.846 35.2633 27.9204 35.201 27.9204C35.1076 27.9204 35.0954 27.8529 35.1317 27.5346C35.3045 26.0177 35.3384 24.6579 35.3687 18.0197L35.4019 10.7273H32.179H28.9561V23.7331V36.7389L32.1161 36.7198L35.2762 36.7006L39.65 30.3818C44.6991 23.0874 44.7845 22.96 46.0215 20.8852C46.5335 20.0265 46.9877 19.3238 47.0307 19.3238C47.1098 19.3238 47.0899 19.7968 46.9329 21.6383C46.895 22.0828 46.8455 25.6289 46.8229 29.5184L46.7819 36.5904H50.0071H53.2324V23.5854V10.5803H50.0994H46.9665L42.6913 16.7706ZM56.4497 13.2989V16.0175H60.4348H64.4199V26.3774V36.7373H67.6736H70.9272L70.9458 26.3958L70.9643 16.0542L74.8522 16.0352L78.7403 16.0162L78.8885 15.5576C79.2813 14.3434 80.4335 10.6648 80.4335 10.6252C80.4335 10.6006 75.0372 10.5803 68.4416 10.5803H56.4497V13.2989ZM125.074 15.8843C120.264 22.8511 120.037 23.1892 118.457 25.7377C117.713 26.9373 117.058 27.9191 117.002 27.9196C116.895 27.9204 116.895 27.9154 117.074 25.6059C117.115 25.0806 117.167 21.518 117.19 17.689L117.231 10.7273H114.005H110.779V23.7323V36.7373H113.91H117.04L121.167 30.7782C126.199 23.5115 126.661 22.8231 127.725 21.0137C128.623 19.4875 128.76 19.2875 128.849 19.3772C128.88 19.4085 128.876 19.7647 128.839 20.1688C128.667 22.0753 128.621 24.1771 128.621 30.143L128.621 36.5904H131.838H135.055V23.5854V10.5803L131.893 10.5844L128.73 10.5884L125.074 15.8843ZM91.2555 15.3519C90.6705 15.4142 90.0029 15.5383 89.5554 15.6676L89.2812 15.7469V23.4411V31.1353L89.7017 31.2914C91.9036 32.1086 94.4115 32.03 96.3374 31.0834C97.903 30.314 98.9484 29.0738 99.5402 27.2836C99.8983 26.2004 100.032 25.3809 100.08 23.9895C100.243 19.1799 98.1514 16.153 94.1934 15.4698C93.3966 15.3322 91.9741 15.2752 91.2555 15.3519ZM6.72717 25.5213V31.3002L8.57348 31.2999C11.6145 31.2994 13.152 31.126 14.5173 30.6296C15.2811 30.3519 16.0841 29.8358 16.5319 29.3348C17.452 28.3056 17.8923 26.589 17.6933 24.8078C17.5352 23.3923 17.1514 22.5242 16.3068 21.6719C15.6132 20.972 14.759 20.5237 13.5247 20.2121C12.3532 19.9164 11.4814 19.8353 8.93909 19.7856L6.72717 19.7424V25.5213Z" fill="white"/>
</g>
<defs>
<clipPath id="clip0_1_2247">
<rect width="280.786" height="50.6975" fill="white"/>
</clipPath>
</defs>
</svg>
