<svg width="230" height="45" viewBox="0 0 230 45" fill="none" xmlns="http://www.w3.org/2000/svg">
<g clip-path="url(#clip0_1_2249)">
<path fill-rule="evenodd" clip-rule="evenodd" d="M117.086 0.500165C115.801 0.785098 113.143 1.95921 111.702 2.87859C104.107 7.72335 99.1515 17.5082 98.5882 28.7725L98.3978 32.5795L97.3882 32.7699C96.8329 32.8746 96.2985 32.8797 96.2006 32.7816C96.1031 32.6832 96.2414 31.8936 96.5083 31.0266C97.9803 26.2458 97.0082 22.2489 94.0744 21.0171C92.395 20.3121 89.0103 20.5902 87.6779 21.5427C85.1353 23.3606 84.0356 25.7342 84.2835 28.8703C84.4682 31.2089 85.3201 33.1102 86.8897 34.6873C88.262 36.0662 88.218 36.2199 86.2896 36.7724C84.4016 37.3133 81.7948 37.1432 80.5843 36.3999C78.353 35.03 77.5127 33.0809 77.7246 29.7663C78.0227 25.0977 81.338 20.8796 85.5957 19.7524C86.2779 19.5718 88.254 19.3129 89.9875 19.1769C91.7207 19.0411 93.2168 18.8516 93.312 18.7559C93.8387 18.2267 92.9234 17.211 91.1813 16.3918C85.3814 13.6648 78.4033 15.0243 73.9716 19.7446C70.6824 23.2482 69.1959 27.4002 69.3783 32.5723L69.478 35.3959L68.519 35.9586C66.6625 37.0487 66.5605 36.2887 67.859 31.0379C68.3732 28.9582 68.8436 26.1148 68.9403 24.5012C69.1599 20.8419 68.5898 19.2914 66.6069 18.1543C64.8287 17.1345 64.0224 16.9952 61.7613 17.3169C59.252 17.6742 57.0094 18.7233 55.4187 20.2849L54.1541 21.5263V20.6491C54.1541 17.6314 51.3601 15.2682 47.7764 15.2548C45.7099 15.247 43.8922 16.0118 42.3905 17.5211L41.4029 18.5134L40.5058 16.9162C38.8919 14.0427 37.1131 13.2943 35.6525 14.8745C34.5372 16.0806 33.4214 18.1576 32.458 20.8201C31.3249 23.9517 30.9928 25.7246 30.6801 30.3087C30.4257 34.0427 30.3924 34.1779 29.5658 34.8554C28.3854 35.8226 27.0574 36.4498 26.5798 36.2657C25.8991 36.0032 25.7372 34.7098 25.7601 29.7059L25.7824 24.8791L27.0247 22.2773C27.7082 20.8464 28.2673 19.4107 28.2673 19.0866C28.2673 17.5262 26.2945 15.3929 24.3009 14.7982C22.717 14.3255 21.972 14.5178 21.4275 15.5397C21.14 16.0797 21.0421 16.089 19.8957 15.6823C17.2409 14.7411 12.2388 15.3944 9.34038 17.061C4.27399 19.9734 1.04468 25.2179 0.274024 31.7845C-0.300248 36.6768 0.803961 39.6041 4.03714 41.761C5.64362 42.8332 5.85815 42.8915 8.58936 43.0003C10.937 43.0939 11.7746 43.0018 13.2192 42.4902C15.472 41.6929 17.1044 40.5507 18.269 38.9577C18.7766 38.2635 19.267 37.69 19.3589 37.6838C19.4505 37.6775 19.6916 38.3221 19.8942 39.1168C20.0968 39.9115 20.6788 41.0686 21.1873 41.6884L22.1118 42.8155L24.2224 42.7019C25.8785 42.6125 26.7938 42.3629 28.472 41.5431L30.6108 40.4981L30.9336 41.7855C31.4942 44.0231 33.1477 44.1924 36.4499 42.35C38.8583 41.0067 39.2242 40.3172 38.7238 38.0647C37.7487 33.6756 37.6517 32.1732 38.2096 30.1021C38.8776 27.6217 41.0072 23.8091 42.5398 22.3491C43.7884 21.1597 44.7334 20.9484 45.6826 21.6459C46.3815 22.1593 46.3955 22.8448 45.8537 30.048C45.3472 36.7802 45.4776 41.4336 46.2039 42.5476C46.9903 43.7535 47.9553 43.8473 50.1086 42.9277C51.1364 42.4888 52.4212 41.7574 52.9639 41.3021C54.1154 40.3361 54.1779 39.6239 53.3936 36.408C52.6568 33.3876 52.8946 31.4084 54.363 28.3336C55.7523 25.4239 57.3611 23.4604 58.5415 23.2335C59.5532 23.0392 60.8713 23.699 61.0808 24.5048C61.2287 25.0729 60.9079 28.4986 60.5479 30.1975C59.3767 35.7209 60.209 41.4273 62.3269 42.397C64.2613 43.2826 68.0381 42.4475 70.8021 40.5229L71.9268 39.7396L73.6779 40.9415C75.8378 42.4239 78.1813 43.0538 81.5374 43.0538C85.6326 43.0538 88.3304 42.0483 91.1271 39.4801L92.7702 37.9711L95.704 37.9502C97.3177 37.9385 98.9057 37.8234 99.233 37.6945C99.7228 37.5017 99.9935 37.7065 100.764 38.8528C105.484 45.8795 116.417 46.4736 124.708 40.154L126.677 38.6534L126.988 40.8811C127.527 44.7413 128.888 45.3814 132.594 43.5187C135.748 41.9332 135.794 41.805 136.017 34.0843C136.202 27.6657 136.204 27.648 137.592 22.2744C139.185 16.1024 139.868 11.2514 139.315 10.0315C139.02 9.38212 138.829 9.28644 138.141 9.4458C135.968 9.94959 133.887 12.9861 131.5 19.135C129.625 23.9657 129.62 23.9747 127.241 26.8246C122.851 32.0814 120.874 34.0146 118.923 34.954C115.275 36.7118 112.722 36.4564 110.38 34.0995C107.024 30.724 106.617 26.4497 108.932 18.8928C110.542 13.6361 112.916 10.6489 115.943 10.0716C117.251 9.82222 118.458 10.2339 120.089 11.4858C121.963 12.9233 123.097 12.9296 124.337 11.5097C126.178 9.40305 126.746 4.34781 125.357 2.43071C124.335 1.0198 122.456 0.294463 119.924 0.33363C118.69 0.352765 117.413 0.427811 117.086 0.500165ZM137.282 0.89064C133.467 1.89553 129.712 4.19682 127.575 6.83985C125.176 9.80578 126.689 10.4208 131.093 8.26959C135.603 6.06577 136.538 5.83346 140.89 5.83167C144.991 5.83017 146.011 6.05979 147.811 7.39028C149.427 8.58532 150.09 10.2309 150.085 13.0348C150.081 15.0404 149.945 15.7332 149.291 17.0747C148.858 17.9654 148.043 19.1419 147.481 19.6896C146.616 20.5319 146.365 20.635 145.851 20.3585C145.058 19.9318 142.163 19.9387 141.222 20.3698C139.084 21.3484 140.011 24.6286 142.609 25.2765C143.722 25.5542 143.886 25.9513 144.455 29.7574C146.041 40.3615 146.068 40.4694 147.501 42.1524C148.736 43.6022 150.241 44.0814 152.671 43.798C154.475 43.5878 157.491 42.3168 159.087 41.0946L160.026 40.3758L160.382 41.8666C161.065 44.7302 162.832 45.2206 166.259 43.4975C167.853 42.6959 168.464 42.2059 168.828 41.4342C169.43 40.16 169.442 37.5405 168.86 34.4843C168.236 31.2098 168.282 30.5562 169.44 26.1471C171.26 19.2238 173.099 14.89 175.652 11.5109C177.404 9.19226 178.738 8.30308 180.706 8.14163C182.048 8.0316 182.338 8.11053 182.929 8.74618C185.056 11.0358 184.247 17.5875 179.986 32.5893C178.955 36.2175 178.749 37.3964 178.717 39.8167C178.684 42.3222 178.762 42.8215 179.303 43.554C180.076 44.6002 181.396 44.7864 183.181 44.1015C185.912 43.0532 187.018 41.0811 186.618 37.9711C185.973 32.9604 188.214 25.3922 192.064 19.5772C193.996 16.66 195.614 15.1152 197.256 14.6206C198.305 14.3049 198.538 14.3243 199.026 14.768C199.335 15.0488 199.672 15.7015 199.775 16.2181C200.057 17.6335 199.183 22.1906 197.353 28.852C195.597 35.2407 195.145 38.5541 195.769 40.4536C196.234 41.8698 198.135 43.5621 199.564 43.8321C201.215 44.1436 204.218 43.5325 206.469 42.426C208.848 41.2575 212.613 37.6105 213.612 35.508C214.542 33.5518 214.496 30.1975 213.54 30.1975C213.343 30.1975 211.98 31.414 210.511 32.9009C206.698 36.7587 204.581 38.0159 203.584 37.0143C202.921 36.3482 203.221 33.4636 204.551 27.706C206.151 20.7842 206.624 17.3788 206.425 14.2044C206.258 11.5306 205.671 9.83299 204.476 8.56918C203.113 7.12777 202.106 6.75763 199.502 6.74178C197.389 6.72892 196.888 6.83985 195.125 7.71169C193.816 8.35899 192.686 9.2102 191.827 10.1972L190.521 11.6978L190.324 9.32979C190.031 5.7925 189.39 3.95733 187.942 2.50187C186.591 1.14418 184.406 0.298948 182.249 0.298948C180.679 0.298948 178.15 1.05149 176.774 1.92812C175.389 2.81012 173.155 5.22413 172.249 6.81623C171.858 7.50479 171.456 8.06897 171.357 8.07017C171.257 8.07167 171.092 7.26351 170.989 6.27506C170.775 4.21476 169.965 2.42144 168.85 1.54063C166.159 -0.585749 159.993 0.408078 156.959 3.45713L155.898 4.52271L154.957 3.72681C151.491 0.795861 142.884 -0.585151 137.282 0.89064ZM159.505 7.19713C158.453 7.96224 158.273 8.23671 158.424 8.84155C159.145 11.7268 158.803 15.1074 157.513 17.8476C156.407 20.1964 154.197 22.4567 151.737 23.7558C150.062 24.6402 149.67 24.9733 149.844 25.3665C149.964 25.6391 150.629 27.8259 151.323 30.2256C152.017 32.6255 152.867 35.1463 153.212 35.8268C154.321 38.0117 155.686 37.8204 158.596 35.0724L160.436 33.3347L161.281 27.9539C161.746 24.9945 162.606 19.9497 163.192 16.7431C164.29 10.7398 164.338 9.14472 163.476 7.43602C162.74 5.97668 161.3 5.88997 159.505 7.19713ZM17.9503 19.5685C13.0401 21.3607 9.49154 25.2819 8.6331 29.8644C8.07103 32.8653 8.43285 35.1104 9.68137 36.3649C11.095 37.7854 14.2851 37.0415 16.4242 34.7926C18.2871 32.8336 18.951 30.8857 19.161 26.7591C19.2616 24.7858 19.524 22.2585 19.7439 21.143C19.9638 20.0275 20.0635 19.0659 19.9656 19.0065C19.8674 18.947 18.9605 19.1999 17.9503 19.5685ZM91.0429 25.8816C90.5841 27.0946 90.7022 28.6269 91.3539 29.9104C91.6847 30.5616 92.0689 31.0944 92.2078 31.0944C92.5979 31.0944 93.2719 28.4074 93.2463 26.9544C93.2329 26.1866 93.0529 25.5459 92.8065 25.3892C92.0445 24.9045 91.3381 25.1019 91.0429 25.8816ZM221.563 32.1247C220.929 32.3555 219.961 32.9822 219.412 33.5171C216.747 36.1117 217.462 40.7537 220.788 42.4585C224.528 44.3759 228.861 41.7434 228.922 37.5166C228.977 33.7096 225.071 30.8475 221.563 32.1247Z" fill="white"/>
</g>
<defs>
<clipPath id="clip0_1_2249">
<rect width="229.114" height="44.8478" fill="white"/>
</clipPath>
</defs>
</svg>
