<svg width="223" height="41" viewBox="0 0 223 41" fill="none" xmlns="http://www.w3.org/2000/svg">
<path fill-rule="evenodd" clip-rule="evenodd" d="M0.212932 0.393938C-0.105852 1.00103 -0.0516531 6.84091 0.27529 7.11752C0.467609 7.28009 4.4764 7.32722 14.9906 7.29019L29.4418 7.2395V3.67534V0.11118L14.9283 0.0604869C0.734913 0.0107867 0.410108 0.0181172 0.212932 0.393938ZM112.769 0.375127C111.767 0.852724 110.602 2.23284 110.328 3.26882C109.823 5.17941 110.683 7.35157 112.364 8.41131C113.15 8.90673 113.505 9.00138 114.608 9.01069C115.738 9.01999 116.049 8.93901 116.869 8.4228C117.391 8.09351 118.08 7.44582 118.399 6.98327C119.708 5.08417 119.132 2.12849 117.185 0.757083C116.408 0.209787 116.081 0.109197 114.917 0.0587043C113.897 0.0147464 113.36 0.0937563 112.769 0.375127ZM121.852 0.249788C121.674 0.431362 121.619 5.11921 121.619 20.1427C121.619 39.3728 121.627 39.8024 121.995 40.003C122.205 40.1175 123.625 40.208 125.213 40.208C126.801 40.208 128.221 40.1175 128.431 40.003C128.799 39.8024 128.807 39.3728 128.807 20.1427C128.807 5.11921 128.752 0.431362 128.574 0.249788C128.247 -0.0832627 122.179 -0.0832627 121.852 0.249788ZM67.6142 4.90081C66.065 5.3899 64.6444 5.92927 64.4575 6.09976C64.1659 6.36568 64.1175 6.78566 64.1175 9.05227V11.6947H61.9224C60.474 11.6947 59.648 11.7755 59.4941 11.9323C59.3332 12.0963 59.261 13.1039 59.261 15.1854C59.261 17.6625 59.3154 18.2563 59.5662 18.5119C59.8063 18.7565 60.3218 18.823 61.977 18.823H64.0824L64.1663 26.3969C64.2426 33.2988 64.2854 34.0903 64.6463 35.3181C65.6506 38.7334 67.8495 40.3644 72.0481 40.8085C74.2343 41.0398 77.0505 40.858 77.4404 40.4604C77.8044 40.0894 77.8417 34.6732 77.4827 34.3073C77.3339 34.1556 76.5767 34.0697 75.3871 34.0697C73.0668 34.0697 71.9319 33.6 71.5589 32.4856C71.3988 32.007 71.3237 29.7856 71.3161 25.3078L71.3052 18.823H74.2054C76.5827 18.823 77.1603 18.767 77.4107 18.5119C77.6601 18.2577 77.7159 17.6758 77.7159 15.3307C77.7159 13.731 77.6269 12.2911 77.5148 12.0776C77.3293 11.7244 77.0808 11.6947 74.3095 11.6947H71.3052V7.95371C71.3052 4.72518 71.2631 4.1963 70.9979 4.09254C70.6022 3.9377 70.8621 3.87572 67.6142 4.90081ZM3.40349 11.2177C2.23112 11.642 1.26622 12.558 0.654877 13.8272L0.108224 14.9618L0.052859 27.5849C0.0147837 36.2777 0.0621843 40.3313 0.205355 40.604C0.400783 40.976 0.61214 41 3.70207 41C6.7547 41 7.0053 40.9725 7.19199 40.617C7.46881 40.0897 7.45948 27.5782 7.18111 26.0434C6.92352 24.6227 6.58706 23.935 5.16467 21.9211C4.56051 21.0659 4.09739 20.3342 4.13547 20.2954C4.17354 20.2566 8.57144 24.6765 13.9086 30.1174C19.2457 35.5583 23.7452 40.01 23.9076 40.01C24.2282 40.01 28.7619 35.4758 28.7619 35.155C28.7619 35.0473 24.3945 30.5083 19.0565 25.0682C13.7186 19.6281 9.38268 15.1448 9.42153 15.1054C9.46019 15.066 10.3089 15.6018 11.3078 16.2958C14.1522 18.2729 13.3206 18.1221 21.7632 18.1906C28.6917 18.2466 29.2551 18.2258 29.4851 17.905C29.7944 17.474 29.8342 11.861 29.5321 11.2856C29.3363 10.9128 28.9979 10.9031 16.7594 10.9183C6.36715 10.9312 4.05174 10.9831 3.40349 11.2177ZM43.1372 11.0159C39.2475 11.699 36.9723 12.7986 34.6262 15.1296C30.2147 19.5125 29.0476 26.9053 31.846 32.7385C34.1054 37.4485 38.0497 40.1397 43.6695 40.8056C47.5854 41.2697 51.4812 40.3505 54.4501 38.2621C55.3812 37.6073 57.5126 35.3958 57.5126 35.0845C57.5126 34.7847 56.4949 34.0673 54.2482 32.7836C52.0107 31.5049 52.1086 31.5051 50.5596 32.7791C47.7737 35.0704 41.7351 34.6176 39.4325 31.9445C38.7306 31.1295 37.837 29.3706 37.9938 29.1122C38.0655 28.9937 42.0117 28.9215 48.387 28.9215C58.3493 28.9215 58.6706 28.9098 58.8657 28.5385C58.9762 28.3278 59.0661 27.1471 59.0654 25.9149C59.0624 21.1932 57.629 17.6938 54.4421 14.6296C52.9426 13.1877 50.7082 11.9315 48.6737 11.3864C47.5268 11.0791 44.0878 10.849 43.1372 11.0159ZM88.8859 11.1961C85.3358 11.9941 82.483 13.9793 80.3947 17.1053C76.6292 22.742 77.0216 30.8018 81.3163 36.0337C82.9975 38.0817 85.0535 39.5072 87.5261 40.339C89.6946 41.0687 92.8662 41.1091 95.0052 40.4343C96.8699 39.846 98.261 39.0354 99.4773 37.8277L100.445 36.8676V38.3001C100.445 39.1504 100.539 39.8294 100.678 39.9704C101.004 40.3034 107.072 40.3034 107.399 39.9704C107.736 39.6266 107.736 12.2761 107.399 11.9323C107.072 11.5993 101.004 11.5993 100.678 11.9323C100.54 12.0725 100.445 12.7457 100.445 13.5732V14.9765L99.3625 13.9336C96.8256 11.4884 92.5528 10.372 88.8859 11.1961ZM143.737 11.2018C142.171 11.5199 140.43 12.2186 138.986 13.1095C131.023 18.0191 129.753 30.019 136.485 36.7428C138.124 38.3801 139.532 39.2773 141.674 40.05C145.965 41.5976 150.639 41.1424 154.509 38.8001C156.037 37.8752 158.403 35.5662 159.009 34.4091C159.346 33.765 159.358 33.6428 159.106 33.3919C158.579 32.866 154.03 30.3075 153.622 30.3075C153.396 30.3075 152.702 30.8136 152.038 31.4635C149.606 33.8414 146.202 34.2887 143.13 32.6341C141.782 31.9082 140.778 30.8221 140.14 29.4026C138.341 25.3971 139.843 20.7285 143.524 18.886C144.542 18.3767 144.826 18.328 146.776 18.328C148.728 18.328 149.009 18.3763 150.032 18.8882C150.65 19.1976 151.606 19.9287 152.168 20.5217C152.727 21.1122 153.328 21.5951 153.504 21.5951C153.679 21.5951 154.991 20.8985 156.419 20.0473C159.415 18.2607 159.497 18.1246 158.455 16.6774C157.057 14.7357 154.736 12.8996 152.521 11.9822C150.039 10.9541 146.504 10.6401 143.737 11.2018ZM193.84 11.2106C192.272 11.5981 190.916 12.3483 189.796 13.4481L188.834 14.3939V13.4273C188.834 11.6648 188.897 11.6947 185.143 11.6947C182.09 11.6947 181.839 11.7222 181.653 12.0776C181.52 12.3309 181.452 17.0306 181.452 25.9513C181.452 34.872 181.52 39.5718 181.653 39.825C181.839 40.1804 182.09 40.208 185.143 40.208C188.195 40.208 188.446 40.1804 188.633 39.825C188.762 39.5781 188.834 36.4252 188.834 30.9505C188.834 21.6177 188.873 21.2385 189.999 19.6774C190.864 18.4795 192.241 17.833 193.929 17.833C196.361 17.833 197.621 18.7476 198.411 21.0886C198.536 21.4583 198.659 25.2801 198.727 30.9016L198.838 40.109L202.115 40.1634C204.367 40.2006 205.476 40.1468 205.66 39.9905C205.881 39.8038 205.929 38.2586 205.929 31.2831C205.929 25.9276 206.006 22.4331 206.14 21.7997C206.458 20.2879 207.378 19.0272 208.648 18.3642C209.608 17.8637 209.879 17.813 211.303 17.8692C212.704 17.9246 212.987 18.0025 213.731 18.5347C214.194 18.8664 214.792 19.5347 215.059 20.0198L215.545 20.9021L215.642 30.3075C215.695 35.4805 215.81 39.8244 215.896 39.9605C216.14 40.3436 222.505 40.3101 222.819 39.924C222.993 39.7102 223.032 37.2281 222.977 29.8751C222.912 21.3629 222.86 19.9576 222.567 18.922C222.009 16.9453 221.201 15.4135 220.047 14.1423C216.269 9.9833 208.982 9.79342 205.165 13.7546L204.109 14.85L203.063 13.6722C200.968 11.3123 197.344 10.3449 193.84 11.2106ZM176.401 11.2375C173.942 11.6571 171.854 12.9796 170.563 14.9349L169.796 16.096V14.133C169.796 12.8701 169.713 12.0852 169.563 11.9323C169.4 11.7664 168.347 11.6947 166.073 11.6947C163.052 11.6947 162.802 11.7224 162.615 12.0776C162.482 12.3309 162.414 17.0306 162.414 25.9513C162.414 34.872 162.482 39.5718 162.615 39.825C162.802 40.1804 163.052 40.208 166.088 40.208C168.534 40.208 169.413 40.143 169.569 39.9508C169.709 39.7795 169.798 37.1196 169.836 31.9809C169.892 24.3633 169.899 24.2556 170.351 23.2358C170.892 22.0169 172.363 20.5411 173.589 19.9885C174.065 19.7738 175.264 19.4875 176.253 19.3527L178.052 19.1072L178.105 15.2668C178.166 10.8165 178.214 10.9282 176.401 11.2375ZM111.372 11.8258C111.181 11.9044 111.129 14.9151 111.129 25.9466C111.129 38.5492 111.16 39.9797 111.436 40.0878C111.605 40.1539 113.085 40.208 114.725 40.208C117.176 40.208 117.76 40.1527 118.011 39.8969C118.283 39.6201 118.317 38.0887 118.317 26.0232C118.317 17.0528 118.248 12.3311 118.116 12.0776C117.929 11.7222 117.689 11.6959 114.765 11.7103C113.032 11.7189 111.505 11.7709 111.372 11.8258ZM43.1372 17.6983C40.8991 18.2284 39.4047 19.3654 38.4882 21.2346C37.4479 23.3564 36.8647 23.1792 44.8856 23.1792C52.9061 23.1792 52.3231 23.3562 51.2838 21.2365C50.195 19.0153 48.1197 17.6906 45.4686 17.5245C44.7741 17.4809 43.7249 17.5591 43.1372 17.6983ZM90.9257 18.104C89.3842 18.4474 88.1163 19.163 87.1135 20.2558C83.4977 24.1958 84.6419 31.0423 89.2774 33.2056C92.4642 34.6926 96.1004 33.9982 98.4034 31.4627C99.6764 30.0612 100.266 28.5973 100.397 26.5151C100.672 22.1428 98.2124 18.8135 94.1438 18.0494C92.7519 17.788 92.3113 17.7955 90.9257 18.104Z" fill="white"/>
</svg>
