<svg width="182" height="25" viewBox="0 0 182 25" fill="none" xmlns="http://www.w3.org/2000/svg">
<path d="M11.585 9.975L21.595 24.5H15.575L8.18999 13.825L5.00499 17.43V24.5H-1.45994e-05V-1.66893e-06H5.00499V10.465L14.175 -1.66893e-06H20.405L11.585 9.975ZM28.5548 24.5H23.5498V-1.66893e-06H33.9098C36.5931 -1.66893e-06 38.7631 0.769999 40.4198 2.31C42.0765 3.85 42.9048 5.81 42.9048 8.19C42.9048 10.57 42.0765 12.5183 40.4198 14.035C38.7865 15.5283 36.6165 16.275 33.9098 16.275H28.5548V24.5ZM28.5548 4.445V11.83H33.9098C35.0531 11.83 35.9748 11.4917 36.6748 10.815C37.3748 10.115 37.7248 9.22833 37.7248 8.155C37.7248 7.08167 37.3748 6.195 36.6748 5.495C35.9748 4.795 35.0531 4.445 33.9098 4.445H28.5548ZM50.2247 24.5H45.2197V-1.66893e-06H50.2247V24.5Z" fill="#44EEEE"/>
<path d="M88.1571 24.5H82.8021L81.0521 19.18H69.5371L67.8221 24.5H62.7471L71.0071 -1.66893e-06H79.8971L88.1571 24.5ZM75.3121 1.47L70.9721 14.735H79.6171L75.3121 1.47ZM103.955 15.295L110.045 24.5H104.095L98.3552 15.785H95.2052V24.5H90.2002V-1.66893e-06H100.735C103.325 -1.66893e-06 105.414 0.746665 107 2.24C108.587 3.71 109.38 5.58833 109.38 7.875C109.38 9.625 108.89 11.165 107.91 12.495C106.954 13.825 105.635 14.7583 103.955 15.295ZM100.735 4.445H95.2052V11.2H100.735C101.785 11.2 102.625 10.885 103.255 10.255C103.909 9.625 104.235 8.82 104.235 7.84C104.235 6.86 103.909 6.055 103.255 5.425C102.625 4.77167 101.785 4.445 100.735 4.445ZM129.069 24.5H112.759V-1.66893e-06H129.069V4.445H117.764V10.045H128.719V14.455H117.764V20.055H129.069V24.5ZM149.317 23.415V-1.66893e-06H154.322V24.5H144.592L137.417 1.085V24.5H132.412V-1.66893e-06H142.107L149.317 23.415ZM181.775 24.5H176.42L174.67 19.18H163.155L161.44 24.5H156.365L164.625 -1.66893e-06H173.515L181.775 24.5ZM168.93 1.47L164.59 14.735H173.235L168.93 1.47Z" fill="white"/>
</svg>
